<svg width="214" height="55" viewBox="0 0 214 55" fill="none" xmlns="http://www.w3.org/2000/svg">
<mask id="mask0_798_27179" style="mask-type:luminance" maskUnits="userSpaceOnUse" x="0" y="0" width="57" height="55">
<path d="M25.8588 2.3493C24.9368 2.42023 24.0286 2.53837 23.1374 2.70515L22.5461 0.501224C21.2715 0.746015 20.0276 1.07958 18.8215 1.49435L19.4128 3.70072C18.5451 4.00567 17.6985 4.35689 16.8777 4.75306L15.7357 2.77483C14.5745 3.34123 13.4608 3.98564 12.399 4.70342L13.5415 6.68259C12.7868 7.20153 12.0585 7.7596 11.366 8.35561L9.75091 6.73937C8.77907 7.58355 7.86833 8.49403 7.02409 9.46468L8.64159 11.0809C8.04583 11.775 7.48776 12.5008 6.96981 13.2562L4.98845 12.1142C4.27192 13.1748 3.62627 14.2897 3.06087 15.4496L5.03785 16.5917C4.64556 17.4134 4.29296 18.26 3.98819 19.1278L1.77938 18.5367C1.36562 19.7426 1.03199 20.9854 0.78651 22.2598L2.99238 22.8511C2.82459 23.7425 2.70627 24.6506 2.63533 25.5728H0.353647C0.308633 26.2089 0.285156 26.8521 0.285156 27.4999C0.285156 28.1468 0.308633 28.7899 0.353647 29.426H2.63533C2.70383 30.3482 2.82459 31.2563 2.98993 32.1489L0.78651 32.739C1.03205 34.0134 1.36562 35.2573 1.77938 36.4622L3.98575 35.8711C4.29045 36.74 4.64312 37.5855 5.03785 38.4084L3.06087 39.5492C3.62627 40.7091 4.27192 41.8241 4.98845 42.8859L6.96737 41.7436C7.48781 42.4993 8.04589 43.2264 8.63914 43.9192L7.02409 45.5367C7.86827 46.5061 8.77901 47.4141 9.75091 48.2608L11.366 46.6433C12.0586 47.2393 12.7844 47.7974 13.5415 48.3175L12.399 50.2943C13.4608 51.0132 14.5745 51.6589 15.7357 52.224L16.8777 50.2471C17.6985 50.6396 18.5451 50.9945 19.4128 51.2994L18.8215 53.5055C20.0277 53.9193 21.2715 54.2529 22.5461 54.4986L23.1374 52.2925C24.0285 52.4581 24.9368 52.5786 25.8588 52.6496V54.9315C26.4951 54.9765 27.1383 55 27.7859 55C28.434 55 29.0747 54.9765 29.711 54.9315V52.6496C31.9032 52.484 34.0925 52.0111 36.1663 51.297C39.7016 50.0507 42.7923 48.2892 45.3581 45.4374C42.3525 46.8419 39.0965 47.7169 35.7222 47.9913C29.7912 48.476 23.9101 47.0642 18.8923 44.0398C17.2749 43.1672 15.7972 42.0652 14.5085 40.7767C11.1106 37.3786 9.00839 32.6846 9.00839 27.5C9.00839 17.1299 17.4147 8.7233 27.7859 8.7233C41.0706 8.7233 50.0165 21.4678 42.1867 33.3337H45.6536C43.7333 39.1463 39.1151 43.6661 33.2649 45.4634C43.8493 45.4137 53.2514 38.6875 56.7133 28.6837H52.5515C56.0178 20.2286 52.2629 12.3107 45.8188 6.73943L44.2038 8.35568C43.5112 7.75973 42.7854 7.20041 42.0282 6.68265L43.1708 4.70348C42.1089 3.9857 40.9952 3.34129 39.8341 2.7749L38.6944 4.75313C37.8713 4.35815 37.0246 4.00573 36.157 3.69959L36.7483 1.49441C35.5421 1.07964 34.2983 0.746079 33.0237 0.501289L32.4328 2.70647C31.5412 2.54087 30.6329 2.42035 29.7109 2.34942V0.0674897C29.0746 0.0237279 28.4339 0 27.7858 0C27.1382 0 26.495 0.0237279 25.8587 0.0674897V2.3493H25.8588Z" fill="white"/>
</mask>
<g mask="url(#mask0_798_27179)">
<path d="M56.7134 0H0.285156V55.0001H56.7134V0Z" fill="#F47629"/>
</g>
<path fill-rule="evenodd" clip-rule="evenodd" d="M32.4332 12.0543C24.5868 9.68143 16.2089 13.5652 12.9553 21.086C9.69633 28.6071 12.5958 37.3752 19.6943 41.4719C13.6694 36.8645 11.5574 28.7465 14.5704 21.7872C17.5852 14.8268 24.9488 10.8127 32.4332 12.0543Z" fill="#F47629"/>
<g clip-path="url(#clip0_798_27179)">
<path d="M22.5508 24.4564C23.3152 23.8624 23.9494 24.2721 24.7958 25.252C24.8909 25.3626 25.0187 25.2332 25.0916 25.1701C25.1637 25.1062 26.2805 24.1008 26.3354 24.0549C26.3895 24.0066 26.455 23.9165 26.369 23.8157C26.1617 23.5593 25.9588 23.2996 25.7602 23.0365C24.2788 21.0987 29.8127 19.7844 28.9631 19.764C28.5304 19.7525 26.795 19.732 26.5353 19.7607C25.4841 19.8713 24.1641 20.8537 23.4996 21.3117C22.6303 21.9066 22.3058 22.2556 22.2525 22.304C22.0067 22.5186 22.2132 23.0144 21.7675 23.4052C21.2963 23.8173 21.0022 23.5051 20.7293 23.7444C20.5942 23.864 20.2156 24.1475 20.1075 24.2417C19.9985 24.3376 19.9788 24.499 20.0902 24.6277C20.0902 24.6277 21.1259 25.7715 21.2128 25.8731C21.2988 25.973 21.5331 26.0599 21.6773 25.9313C21.8224 25.8034 22.1952 25.4782 22.2574 25.4208C22.3214 25.3667 22.2165 24.7153 22.5508 24.4564ZM27.2277 24.88C27.1293 24.7661 27.0073 24.7629 26.9024 24.8563L25.7274 25.8821C25.6821 25.9233 25.6544 25.9804 25.6503 26.0415C25.6462 26.1026 25.6659 26.163 25.7053 26.2098L32.5011 33.9438C32.66 34.1265 32.9353 34.1453 33.1164 33.9872L33.9112 33.321C33.9986 33.244 34.0522 33.1356 34.0602 33.0193C34.0681 32.903 34.0299 32.7882 33.9538 32.7L27.2277 24.88ZM36.2889 21.5887C36.2283 21.1839 36.0186 21.2683 35.9096 21.4395C35.8006 21.6124 35.3188 22.3425 35.1205 22.6735C34.9239 23.0012 34.4388 23.6494 33.5359 23.0094C32.5953 22.3449 32.9222 21.8812 33.0861 21.569C33.2508 21.2552 33.7563 20.3752 33.8292 20.2662C33.9022 20.1556 33.8169 19.8344 33.5252 19.9688C33.2327 20.1032 31.458 20.8086 31.2122 21.8205C30.9607 22.8497 31.4228 23.7698 30.5157 24.6834L29.4154 25.8305L30.5207 27.1136L31.8759 25.8272C32.1987 25.5027 32.8886 25.1873 33.513 25.3299C34.851 25.6322 35.581 25.1299 36.021 24.2991C36.4159 23.5568 36.3504 21.9934 36.2889 21.5887ZM22.2263 32.7835C22.1444 32.8661 22.0984 32.9777 22.0984 33.0941C22.0984 33.2104 22.1444 33.322 22.2263 33.4046L23.0055 34.1666C23.1759 34.3379 23.4463 34.2658 23.6168 34.0945L27.6373 30.1419L26.4059 28.7376L22.2263 32.7835Z" fill="white"/>
</g>
<path d="M79.1858 31H72.7358V2.19H85.9798C92.8598 2.19 96.6868 5.372 96.6868 10.962C96.6868 15.649 94.3648 18.444 89.4198 18.874V19.304C91.9138 20.078 93.1178 21.583 94.2358 23.776L97.8908 31H90.3658L86.9688 24.335C85.6788 21.841 84.8188 20.766 81.7658 20.766H79.1858V31ZM79.1858 7.995V15.434H86.2808C89.2908 15.434 90.2798 14.531 90.2798 11.693C90.2798 8.941 89.2908 7.995 86.2808 7.995H79.1858ZM104.678 31H97.9698L108.591 2.19H117.965L128.586 31H121.577L119.255 24.593H107.043L104.678 31ZM110.784 14.359L109.15 18.831H117.148L115.514 14.359L113.407 7.866H112.977L110.784 14.359ZM136.379 31H129.929V2.19H136.379V13.671H141.84L148.591 2.19H155.901L147.215 16.466L155.772 31H148.376L141.926 19.906H136.379V31ZM162.711 31H156.003L166.624 2.19H175.998L186.619 31H179.61L177.288 24.593H165.076L162.711 31ZM168.817 14.359L167.183 18.831H175.181L173.547 14.359L171.44 7.866H171.01L168.817 14.359ZM194.412 31H187.962V2.19H201.206C208.086 2.19 211.913 5.372 211.913 10.962C211.913 15.649 209.591 18.444 204.646 18.874V19.304C207.14 20.078 208.344 21.583 209.462 23.776L213.117 31H205.592L202.195 24.335C200.905 21.841 200.045 20.766 196.992 20.766H194.412V31ZM194.412 7.995V15.434H201.507C204.517 15.434 205.506 14.531 205.506 11.693C205.506 8.941 204.517 7.995 201.507 7.995H194.412Z" fill="white"/>
<path d="M73.4868 53L71.1468 45.08H72.1428L74.0988 52.124L75.9588 45.08H77.0508L78.9108 52.148L80.8668 45.08H81.8148L79.4868 53H78.2988L76.8948 47.864L76.4868 46.076H76.4748L76.0668 47.864L74.6748 53H73.4868ZM83.5421 53V45.08H89.0981V45.98H84.5021V48.536H88.0781V49.436H84.5021V52.1H89.2781V53H83.5421ZM101.116 53H100.096L99.2558 50.804H95.6678L94.8278 53H93.8198L96.9038 45.08H98.0438L101.116 53ZM96.0158 49.904H98.9078L97.4558 46.004L96.0158 49.904ZM105.726 45.08C106.534 45.08 107.182 45.288 107.67 45.704C108.158 46.12 108.402 46.684 108.402 47.396C108.402 48.108 108.154 48.664 107.658 49.064C107.17 49.456 106.522 49.652 105.714 49.652L105.63 49.712H103.686V53H102.726V45.08H105.726ZM105.714 48.812C106.282 48.812 106.702 48.696 106.974 48.464C107.254 48.224 107.394 47.868 107.394 47.396C107.394 46.924 107.254 46.572 106.974 46.34C106.702 46.1 106.282 45.98 105.714 45.98H103.686V48.812H105.714ZM106.266 49.004L108.882 53H107.742L105.462 49.532L106.266 49.004ZM110.706 53V45.08H116.262V45.98H111.666V48.536H115.242V49.436H111.666V52.1H116.442V53H110.706ZM125.244 45.08C125.78 45.08 126.244 45.18 126.636 45.38C127.036 45.572 127.348 45.848 127.572 46.208C127.796 46.568 127.908 46.996 127.908 47.492C127.908 47.988 127.796 48.416 127.572 48.776C127.348 49.136 127.036 49.416 126.636 49.616C126.244 49.808 125.78 49.904 125.244 49.904H123.408V53H122.448V45.08H125.244ZM125.1 49.004C125.724 49.004 126.18 48.876 126.468 48.62C126.756 48.356 126.9 47.98 126.9 47.492C126.9 46.996 126.756 46.62 126.468 46.364C126.18 46.108 125.724 45.98 125.1 45.98H123.408V49.004H125.1ZM132.773 45.08C133.581 45.08 134.229 45.288 134.717 45.704C135.205 46.12 135.449 46.684 135.449 47.396C135.449 48.108 135.201 48.664 134.705 49.064C134.217 49.456 133.569 49.652 132.761 49.652L132.677 49.712H130.733V53H129.773V45.08H132.773ZM132.761 48.812C133.329 48.812 133.749 48.696 134.021 48.464C134.301 48.224 134.441 47.868 134.441 47.396C134.441 46.924 134.301 46.572 134.021 46.34C133.749 46.1 133.329 45.98 132.761 45.98H130.733V48.812H132.761ZM133.313 49.004L135.929 53H134.789L132.509 49.532L133.313 49.004ZM140.875 44.96C141.627 44.96 142.275 45.128 142.819 45.464C143.371 45.792 143.795 46.26 144.091 46.868C144.395 47.476 144.547 48.2 144.547 49.04C144.547 49.88 144.395 50.604 144.091 51.212C143.795 51.82 143.371 52.292 142.819 52.628C142.275 52.956 141.627 53.12 140.875 53.12C140.123 53.12 139.471 52.956 138.919 52.628C138.375 52.292 137.951 51.82 137.647 51.212C137.351 50.604 137.203 49.88 137.203 49.04C137.203 48.2 137.351 47.476 137.647 46.868C137.951 46.26 138.375 45.792 138.919 45.464C139.471 45.128 140.123 44.96 140.875 44.96ZM140.875 45.86C140.331 45.86 139.859 45.988 139.459 46.244C139.059 46.492 138.751 46.856 138.535 47.336C138.319 47.808 138.211 48.376 138.211 49.04C138.211 49.704 138.319 50.276 138.535 50.756C138.751 51.228 139.059 51.592 139.459 51.848C139.859 52.096 140.331 52.22 140.875 52.22C141.427 52.22 141.899 52.096 142.291 51.848C142.691 51.592 142.999 51.228 143.215 50.756C143.431 50.276 143.539 49.704 143.539 49.04C143.539 48.376 143.431 47.808 143.215 47.336C142.999 46.856 142.691 46.492 142.291 46.244C141.899 45.988 141.427 45.86 140.875 45.86ZM152.203 45.98H147.619V48.536H151.195V49.436H147.619V53H146.659V45.08H152.203V45.98ZM153.984 53V45.08H159.54V45.98H154.944V48.536H158.52V49.436H154.944V52.1H159.72V53H153.984ZM164.18 44.96C164.876 44.96 165.476 45.104 165.98 45.392C166.484 45.672 166.904 46.088 167.24 46.64L166.436 47.264C166.14 46.752 165.804 46.392 165.428 46.184C165.06 45.968 164.612 45.86 164.084 45.86C163.66 45.86 163.308 45.92 163.028 46.04C162.756 46.16 162.556 46.32 162.428 46.52C162.3 46.712 162.236 46.932 162.236 47.18C162.236 47.46 162.324 47.708 162.5 47.924C162.676 48.132 163.028 48.296 163.556 48.416L165.272 48.8C166.032 48.968 166.56 49.224 166.856 49.568C167.16 49.904 167.312 50.324 167.312 50.828C167.312 51.276 167.184 51.676 166.928 52.028C166.68 52.372 166.328 52.64 165.872 52.832C165.416 53.024 164.88 53.12 164.264 53.12C163.688 53.12 163.18 53.044 162.74 52.892C162.308 52.732 161.936 52.52 161.624 52.256C161.312 51.992 161.056 51.696 160.856 51.368L161.696 50.684C161.848 50.988 162.044 51.256 162.284 51.488C162.524 51.72 162.812 51.9 163.148 52.028C163.492 52.156 163.884 52.22 164.324 52.22C164.732 52.22 165.084 52.172 165.38 52.076C165.684 51.972 165.916 51.824 166.076 51.632C166.236 51.432 166.316 51.192 166.316 50.912C166.316 50.656 166.232 50.428 166.064 50.228C165.896 50.02 165.58 49.864 165.116 49.76L163.256 49.34C162.768 49.228 162.372 49.076 162.068 48.884C161.772 48.684 161.556 48.452 161.42 48.188C161.292 47.916 161.228 47.624 161.228 47.312C161.228 46.888 161.344 46.5 161.576 46.148C161.816 45.788 162.156 45.5 162.596 45.284C163.044 45.068 163.572 44.96 164.18 44.96ZM171.867 44.96C172.563 44.96 173.163 45.104 173.667 45.392C174.171 45.672 174.591 46.088 174.927 46.64L174.123 47.264C173.827 46.752 173.491 46.392 173.115 46.184C172.747 45.968 172.299 45.86 171.771 45.86C171.347 45.86 170.995 45.92 170.715 46.04C170.443 46.16 170.243 46.32 170.115 46.52C169.987 46.712 169.923 46.932 169.923 47.18C169.923 47.46 170.011 47.708 170.187 47.924C170.363 48.132 170.715 48.296 171.243 48.416L172.959 48.8C173.719 48.968 174.247 49.224 174.543 49.568C174.847 49.904 174.999 50.324 174.999 50.828C174.999 51.276 174.871 51.676 174.615 52.028C174.367 52.372 174.015 52.64 173.559 52.832C173.103 53.024 172.567 53.12 171.951 53.12C171.375 53.12 170.867 53.044 170.427 52.892C169.995 52.732 169.623 52.52 169.311 52.256C168.999 51.992 168.743 51.696 168.543 51.368L169.383 50.684C169.535 50.988 169.731 51.256 169.971 51.488C170.211 51.72 170.499 51.9 170.835 52.028C171.179 52.156 171.571 52.22 172.011 52.22C172.419 52.22 172.771 52.172 173.067 52.076C173.371 51.972 173.603 51.824 173.763 51.632C173.923 51.432 174.003 51.192 174.003 50.912C174.003 50.656 173.919 50.428 173.751 50.228C173.583 50.02 173.267 49.864 172.803 49.76L170.943 49.34C170.455 49.228 170.059 49.076 169.755 48.884C169.459 48.684 169.243 48.452 169.107 48.188C168.979 47.916 168.915 47.624 168.915 47.312C168.915 46.888 169.031 46.5 169.263 46.148C169.503 45.788 169.843 45.5 170.283 45.284C170.731 45.068 171.259 44.96 171.867 44.96ZM177.971 45.08V53H177.011V45.08H177.971ZM183.754 44.96C184.506 44.96 185.154 45.128 185.698 45.464C186.25 45.792 186.674 46.26 186.97 46.868C187.274 47.476 187.426 48.2 187.426 49.04C187.426 49.88 187.274 50.604 186.97 51.212C186.674 51.82 186.25 52.292 185.698 52.628C185.154 52.956 184.506 53.12 183.754 53.12C183.002 53.12 182.35 52.956 181.798 52.628C181.254 52.292 180.83 51.82 180.526 51.212C180.23 50.604 180.082 49.88 180.082 49.04C180.082 48.2 180.23 47.476 180.526 46.868C180.83 46.26 181.254 45.792 181.798 45.464C182.35 45.128 183.002 44.96 183.754 44.96ZM183.754 45.86C183.21 45.86 182.738 45.988 182.338 46.244C181.938 46.492 181.63 46.856 181.414 47.336C181.198 47.808 181.09 48.376 181.09 49.04C181.09 49.704 181.198 50.276 181.414 50.756C181.63 51.228 181.938 51.592 182.338 51.848C182.738 52.096 183.21 52.22 183.754 52.22C184.306 52.22 184.778 52.096 185.17 51.848C185.57 51.592 185.878 51.228 186.094 50.756C186.31 50.276 186.418 49.704 186.418 49.04C186.418 48.376 186.31 47.808 186.094 47.336C185.878 46.856 185.57 46.492 185.17 46.244C184.778 45.988 184.306 45.86 183.754 45.86ZM195.754 45.08V53H194.566L191.254 47.696L190.414 46.208H190.402L190.45 47.408V53H189.538V45.08H190.726L194.026 50.36L194.878 51.884H194.89L194.842 50.672V45.08H195.754ZM204.663 53H203.643L202.803 50.804H199.215L198.375 53H197.367L200.451 45.08H201.591L204.663 53ZM199.563 49.904H202.455L201.003 46.004L199.563 49.904ZM207.233 52.1H211.769V53H206.273V45.08H207.233V52.1Z" fill="white"/>
<defs>
<clipPath id="clip0_798_27179">
<rect width="16.3871" height="16.3871" fill="white" transform="translate(19.9824 18.8115)"/>
</clipPath>
</defs>
</svg>
